# xmcd
# 
# Track frame offsets:
#     150
#     10880
#     23680
#     37392
#     50897
#     70947
#     102372
#     128095
#     141955
#     160055
#     175280
#     210682
#     238022
# 
# Disc length: 3377
# 
# Revision: 0
# Processed by: cddbd v1.5.2PL0 Copyright (c) Steve Scherf et al.
# Submitted via: fre:ac v1.0.27
# 
DISCID=bc0d2f0d
DTITLE=Miles Davis - Blue Haze
DYEAR=0
DGENRE=Jazz
TTITLE0=Morpheus
TTITLE1=Down
TTITLE2=Whispering
TTITLE3=Blue Room
TTITLE4=Miles Ahead
TTITLE5=The Serpents Tooth
TTITLE6=Compulsion
TTITLE7=Smooch
TTITLE8=Four
TTITLE9=That old Devil Moon
TTITLE10=I'll remember April
TTITLE11=Blue Haze
TTITLE12=When lights are low
EXTD=
EXTT0=
EXTT1=
EXTT2=
EXTT3=
EXTT4=
EXTT5=
EXTT6=
EXTT7=
EXTT8=
EXTT9=
EXTT10=
EXTT11=
EXTT12=
PLAYORDER=
